<?xml version="1.0" encoding="UTF-8"?>
<svg id="Layer_2" data-name="Layer 2" xmlns="http://www.w3.org/2000/svg" viewBox="0 0 284.24 293.53">
  <defs>
    <style>
      .cls-1 {
        fill: #010101;
      }

      .cls-2 {
        fill: #030303;
      }

      .cls-3 {
        stroke: #fcee21;
        stroke-width: 7px;
      }

      .cls-3, .cls-4, .cls-5, .cls-6 {
        stroke-miterlimit: 10;
      }

      .cls-3, .cls-5, .cls-6 {
        fill: none;
      }

      .cls-4 {
        fill: #c1272d;
      }

      .cls-4, .cls-6 {
        stroke: #bdccd4;
        stroke-linecap: round;
        stroke-width: 2px;
      }

      .cls-5 {
        stroke: #231f20;
        stroke-width: 4px;
      }

      .cls-7 {
        fill: #febfca;
      }

      .cls-8 {
        fill: #f7f7f7;
      }

      .cls-9 {
        fill: #fefefe;
      }
    </style>
  </defs>
  <g id="Layer_1-2" data-name="Layer 1">
    <g>
      <path class="cls-5" d="M215,138.46c2.73-.69,6.5-1.73,10.93-3.21,10.02-3.34,18.88-6.3,27.11-12.16,12.2-8.69,13.06-16.66,19-16,5.93.66,11.34,9.3,10,13.73-.16.55-.58,2.37-2.24,3.53-1.95,1.35-4.23.87-4.76.74.49.95,2.5,5.1,1,10-.28.93-1.21,3.81-4,6-4.59,3.59-10.25,2.2-11,2,.42,1.55,1.58,6.65-1,12-.52,1.07-1.91,3.87-5,6-5.52,3.81-11.85,2.29-13,2,1.61,5.26-.65,10.75-5,13-3.39,1.76-7.66,1.34-11-1-.65-.92-1.59-2.27-2.68-3.93-2.45-3.74-4.21-6.63-4.31-7.02-1.23-4.85-2.99-13.2-4.05-25.68Z"/>
      <path class="cls-5" d="M69.24,141.46c-2.73-.69-6.5-1.73-10.93-3.21-10.02-3.34-18.88-6.3-27.11-12.16-12.2-8.69-13.06-16.66-19-16-5.93.66-11.34,9.3-10,13.73.16.55.58,2.37,2.24,3.53,1.95,1.35,4.23.87,4.76.74-.49.95-2.5,5.1-1,10,.28.93,1.21,3.81,4,6,4.59,3.59,10.25,2.2,11,2-.42,1.55-1.58,6.65,1,12,.52,1.07,1.91,3.87,5,6,5.52,3.81,11.85,2.29,13,2-1.61,5.26.65,10.75,5,13,3.39,1.76,7.66,1.34,11-1,.65-.92,1.59-2.27,2.68-3.93,2.45-3.74,4.21-6.63,4.31-7.02,1.23-4.85,2.99-13.2,4.05-25.68Z"/>
      <g>
        <path d="M195.69,63.44c30.7,30.39,34.58,96.33,33.4,137.2-.31,10.63-1.06,38.18-3.83,47.17-3.87,12.56-21.36,30.5-34.83,32.17-4.41.55-14.82-1.2-16.69-.74-.84.21-10.3,8.12-13.38,9.67-11.8,5.95-23,6.29-34.85.21-3.02-1.55-12.33-9.66-13.19-9.89-1.94-.52-12.49,1.29-16.76.85-13.96-1.43-29.46-19.26-34.25-31.75-1.98-5.18-2.8-21.23-3.25-27.75-3.22-46.79-2.72-130.43,38.07-161.91,27.84-21.48,74.18-20.37,99.57,4.77Z"/>
        <path class="cls-9" d="M141.86,48.33c77.9-1.42,83.95,96.04,82.22,153.31-.37,12.29-1.03,31.12-3.09,42.91-.37,2.14-4.15,8.26-5.54,10.46-6.15,9.83-16.6,19.99-28.91,20.53-3.85.17-12.31-2.31-14.04-2.07-.62.09-7.62,6.73-9.56,8.03-15.68,10.56-28.08,8.82-42.83-1.99-1.69-1.24-5.37-5.88-6.55-6.04-1.88-.26-10.99,2.33-15.06,2.1-12.92-.75-30.8-19.14-33.26-31.19-2.34-11.5-2.93-32.5-3.27-44.73-1.58-56.74,4.26-149.94,79.87-151.32Z"/>
        <path class="cls-1" d="M185.04,135.09c1.6,2.74-3.55,6.4-6,5-26.64,8.25-28.21-34.06-1.94-28.55,9.94,2.09,14.57,15.77,7.94,23.55Z"/>
        <path class="cls-1" d="M107.04,140.09c-2.29,1.62-7.6-2.32-6-5-7.39-9.05-1.1-23.16,10.52-24.03,24.36-1.81,20.32,37.25-4.52,29.03Z"/>
        <path class="cls-7" d="M179.04,140.09c.81-1.48,4.76-3.55,6-5,1.7,1.89,4.61.47,6.99,1.51,7.02,3.07,8.47,13.57.97,17.94-9.77,5.7-18.52-6.17-13.95-14.46Z"/>
        <path class="cls-7" d="M107.04,140.09c.17.28,1.11,5.84,1.11,6.51.08,9.62-16.06,13.92-19.66,2.54-2.8-8.86,5.26-12.7,12.55-14.06,1.26,1.54,5.03,3.35,6,5Z"/>
        <path class="cls-2" d="M153.04,156.09c-.16,13.05-19.52,13.88-20,0h20Z"/>
        <path class="cls-8" d="M176.77,116.29c7.24-1.5,8.8,8.31,2.53,9.61-7.24,1.5-8.8-8.31-2.53-9.61Z"/>
        <path class="cls-8" d="M116.77,116.29c7.24-1.5,8.8,8.31,2.53,9.61-7.24,1.5-8.8-8.31-2.53-9.61Z"/>
      </g>
      <ellipse class="cls-3" cx="142.59" cy="21.09" rx="45.56" ry="8"/>
    </g>
    <line class="cls-6" x1="74.04" y1="34.09" x2="57.04" y2="43.09"/>
    <line class="cls-4" x1="76.41" y1="7.45" x2="54.48" y2="1"/>
    <line class="cls-6" x1="197.99" y1="34.09" x2="224.04" y2="48.09"/>
    <line class="cls-6" x1="206.76" y1="7.45" x2="226.86" y2="2.41"/>
    <line class="cls-6" x1="213.65" y1="21.09" x2="241.04" y2="23.84"/>
    <line class="cls-6" x1="77.04" y1="21.09" x2="46.04" y2="23.69"/>
  </g>
</svg>