<?xml version="1.0" encoding="UTF-8"?>
<svg id="Layer_1" data-name="Layer 1" xmlns="http://www.w3.org/2000/svg" viewBox="0 0 172.42 250.02">
  <defs>
    <style>
      .cls-1 {
        fill: #010101;
      }

      .cls-2 {
        fill: #030303;
      }

      .cls-3 {
        fill: #febfca;
      }

      .cls-4 {
        fill: #f7f7f7;
      }

      .cls-5 {
        fill: #fefefe;
      }
    </style>
  </defs>
  <path d="M138.84,19.93c30.7,30.39,34.58,96.33,33.4,137.2-.31,10.63-1.06,38.18-3.83,47.17-3.87,12.56-21.36,30.5-34.83,32.17-4.41.55-14.82-1.2-16.69-.74-.84.21-10.3,8.12-13.38,9.67-11.8,5.95-23,6.29-34.85.21-3.02-1.55-12.33-9.66-13.19-9.89-1.94-.52-12.49,1.29-16.76.85-13.96-1.43-29.46-19.26-34.25-31.75-1.98-5.18-2.8-21.23-3.25-27.75C-2.02,130.28-1.52,46.64,39.27,15.17c27.84-21.48,74.18-20.37,99.57,4.77Z"/>
  <path class="cls-5" d="M85.01,4.82c77.9-1.42,83.95,96.04,82.22,153.31-.37,12.29-1.03,31.12-3.09,42.91-.37,2.14-4.15,8.26-5.54,10.46-6.15,9.83-16.6,19.99-28.91,20.53-3.85.17-12.31-2.31-14.04-2.07-.62.09-7.62,6.73-9.56,8.03-15.68,10.56-28.08,8.82-42.83-1.99-1.69-1.24-5.37-5.88-6.55-6.04-1.88-.26-10.99,2.33-15.06,2.1-12.92-.75-30.8-19.14-33.26-31.19-2.34-11.5-2.93-32.5-3.27-44.73C3.57,99.39,9.4,6.19,85.01,4.82Z"/>
  <path class="cls-1" d="M128.19,91.58c1.6,2.74-3.55,6.4-6,5-26.64,8.25-28.21-34.06-1.94-28.55,9.94,2.09,14.57,15.77,7.94,23.55Z"/>
  <path class="cls-1" d="M50.19,96.58c-2.29,1.62-7.6-2.32-6-5-7.39-9.05-1.1-23.16,10.52-24.03,24.36-1.81,20.32,37.25-4.52,29.03Z"/>
  <path class="cls-3" d="M122.19,96.58c.81-1.48,4.76-3.55,6-5,1.7,1.89,4.61.47,6.99,1.51,7.02,3.07,8.47,13.57.97,17.94-9.77,5.7-18.52-6.17-13.95-14.46Z"/>
  <path class="cls-3" d="M50.19,96.58c.17.28,1.11,5.84,1.11,6.51.08,9.62-16.06,13.92-19.66,2.54-2.8-8.86,5.26-12.7,12.55-14.06,1.26,1.54,5.03,3.35,6,5Z"/>
  <path class="cls-2" d="M96.19,112.58c-.16,13.05-19.52,13.88-20,0h20Z"/>
  <path class="cls-4" d="M119.92,72.78c7.24-1.5,8.8,8.31,2.53,9.61-7.24,1.5-8.8-8.31-2.53-9.61Z"/>
  <path class="cls-4" d="M59.92,72.78c7.24-1.5,8.8,8.31,2.53,9.61-7.24,1.5-8.8-8.31-2.53-9.61Z"/>
</svg>