<?xml version="1.0" encoding="UTF-8"?>
<svg id="Layer_1" data-name="Layer 1" xmlns="http://www.w3.org/2000/svg" viewBox="0 0 196.43 339.48">
  <defs>
    <style>
      .cls-1 {
        fill: #fff;
      }
    </style>
  </defs>
  <path d="M105.1,66.31h49.25c3.05,0,10.94,2.71,13.93,4.07,15.75,7.17,26.33,22.88,27.34,40.16,2.56,43.6-1.98,89.68,0,133.54-1.88,64.31-64.08,110.01-126.13,91.09C28.57,322.68,2.37,285.93.58,243.58c-1.86-43.87,1.45-89.04,0-133.04,1.5-23.62,20.01-42.8,43.75-44.25,15.24-.93,31.43.74,46.77.02v-29.75c0-4.16-4.55-11.99-7.55-14.95-13.53-13.34-41.76-5.79-59.19-7.81-6.43-2.72-6.08-11.33.61-13.37,14.19.47,29.31-1.03,43.41-.14,17.45,1.1,36.73,18.12,36.73,36.27v29.75ZM91.1,80.31h-48.75c-4.8,0-14.95,6.08-18.45,9.55-3.67,3.64-9.3,13.04-9.3,18.2v85.75h76.5v-24c-12.83-3.59-20.74-13.95-21.52-27.23-.32-5.49-.35-13.67,1.17-18.88,2.78-9.52,11.21-16.57,20.36-19.64v-23.75ZM181.6,193.81v-85.75c0-11.72-16.56-27.75-28.25-27.75h-48.25v23.75c9.27,3.17,17.53,9.95,20.36,19.64,1.53,5.25,1.52,13.84,1.17,19.38-.82,13.02-9.01,23.28-21.52,26.73v24h76.5ZM97.52,117.43c-4.89.14-9.41,2.9-12.01,7.03-2.98,4.73-2.81,20.35,0,25.19,6.09,10.51,21.81,9.21,26.18-2.01,1.32-3.38,1.36-14.21.92-18.09-.81-7.12-8.19-12.33-15.09-12.13ZM181.6,207.81H14.6c.79,16.9-1.76,34.94,1.73,51.52,10.72,50.95,66.34,80.53,114.6,59.57,24.94-10.83,43.55-33.25,49.01-59.99,3.37-16.48.87-34.31,1.65-51.1Z"/>
  <path class="cls-1" d="M181.6,193.81h-76.5v-24c12.51-3.45,20.7-13.71,21.52-26.73.35-5.54.36-14.13-1.17-19.38-2.83-9.7-11.09-16.47-20.36-19.64v-23.75h48.25c11.69,0,28.25,16.03,28.25,27.75v85.75Z"/>
  <path class="cls-1" d="M91.1,80.31v23.75c-9.14,3.07-17.58,10.12-20.36,19.64-1.52,5.21-1.49,13.39-1.17,18.88.78,13.28,8.69,23.63,21.52,27.23v24H14.6v-85.75c0-5.16,5.63-14.56,9.3-18.2s13.65-9.55,18.45-9.55h48.75Z"/>
  <path class="cls-1" d="M97.52,117.43c6.89-.2,14.28,5.01,15.09,12.13.44,3.88.4,14.71-.92,18.09-4.37,11.22-20.09,12.52-26.18,2.01-2.81-4.85-2.98-20.46,0-25.19,2.61-4.14,7.12-6.89,12.01-7.03Z"/>
</svg>